<svg width="251" height="114" viewBox="0 0 251 114" fill="none" xmlns="http://www.w3.org/2000/svg">
<path d="M137.793 12.6841L138.282 12.8063L138.4 12.3167L140.935 1.85406C141.13 1.04893 141.941 0.554363 142.746 0.749422L142.864 0.26348L142.746 0.749422L153.437 3.33946C154.242 3.53452 154.736 4.34534 154.541 5.15047L152.72 12.6693L152.513 12.6192L152.336 12.9771C152.031 13.591 151.333 13.9347 150.639 13.7667C149.834 13.5716 149.34 12.7608 149.535 11.9557C149.73 11.1506 150.54 10.656 151.346 10.8511C151.411 10.8669 151.474 10.8868 151.535 10.9103L152.067 11.1157L152.201 10.5616L153.569 4.91501L153.687 4.42907L153.201 4.31134L142.51 1.72131L142.025 1.60358L141.907 2.08952L139.035 13.9418L138.988 13.9304L138.884 14.4374C138.88 14.4542 138.876 14.4714 138.872 14.4887C138.677 15.2939 137.866 15.7884 137.061 15.5934C136.256 15.3983 135.761 14.5875 135.956 13.7824C136.151 12.9778 136.961 12.4833 137.766 12.6773C137.766 12.6775 137.767 12.6776 137.768 12.6777L137.793 12.6841ZM83.2897 75.3399L83.8992 75.1363L83.552 74.5955L78.1197 66.1357C77.672 65.4386 77.8743 64.5106 78.5713 64.063L87.8273 58.1194C88.5244 57.6718 89.4524 57.874 89.9 58.5711L93.9973 64.9519L93.5928 65.2116L93.8889 65.6375C93.8997 65.6529 93.9101 65.6686 93.9203 65.6844L93.9203 65.6845C94.368 66.3816 94.1657 67.3095 93.4686 67.7572C92.7716 68.2048 91.8436 68.0026 91.396 67.3055C90.9483 66.6084 91.1506 65.6804 91.8477 65.2328C91.9483 65.1682 92.0532 65.1173 92.1603 65.0795L92.7559 64.8693L92.4146 64.3379L89.0586 59.1114L88.7884 58.6907L88.3677 58.9609L79.1117 64.9045L78.6909 65.1746L78.9611 65.5954L85.4277 75.6658L85.3854 75.6929L85.055 75.9051L85.1828 76.2765C85.4028 76.9152 85.1672 77.6448 84.5741 78.0257C83.877 78.4733 82.9491 78.2711 82.5014 77.574C82.0538 76.8769 82.256 75.949 82.9531 75.5014C83.0612 75.4319 83.1742 75.3784 83.2897 75.3399ZM137.981 51.957C122.296 69.1874 114.378 91.4353 111.626 107.838C111.269 109.961 108.564 110.715 107.103 109.175C84.1571 85.0034 61.8321 80.4834 43.2303 84.6266C24.5841 88.7797 9.58643 101.659 1.39825 112.441C1.23125 112.661 0.917583 112.704 0.697663 112.537C0.477745 112.37 0.434854 112.056 0.601858 111.836C8.88603 100.927 24.0699 87.8697 43.0129 83.6505C62.0001 79.4214 84.672 84.0933 107.829 108.487C108.758 109.466 110.428 108.931 110.639 107.673C113.414 91.1374 121.393 68.6937 137.242 51.2838C153.11 33.853 176.849 21.4905 211.053 25.1415C211.328 25.1708 211.527 25.4171 211.497 25.6917C211.468 25.9663 211.222 26.1651 210.947 26.1358C177.079 22.5207 153.648 34.7474 137.981 51.957ZM250.5 16.4999C250.5 24.7842 243.784 31.4999 235.5 31.4999C227.216 31.4999 220.5 24.7842 220.5 16.4999C220.5 8.21564 227.216 1.49991 235.5 1.49991C243.784 1.49991 250.5 8.21564 250.5 16.4999Z" fill="#FFFFE0" stroke="#FFFFE0"/>
</svg>
