<svg width="558" height="230" viewBox="0 0 559 232" fill="none" xmlns="http://www.w3.org/2000/svg">
<path class="slash" d="M557.221 0.85788L535.103 114.858L536.584 115.142L558.701 1.14211L557.221 0.85788Z" fill="white"/>
<path fill-rule="evenodd" clip-rule="evenodd" d="M42.9937 58.1803L64.7587 58.2358C70.8143 58.2358 76.4073 57.2319 81.5378 55.2241C86.7103 53.2163 90.9366 50.1209 94.2167 45.938C97.5389 41.755 99.4733 36.4427 100.02 30.001C100.525 24.2703 99.6415 19.3972 97.3707 15.3816C95.0998 11.366 91.8197 8.2915 87.5303 6.1582C83.283 3.98307 78.4259 2.83276 72.959 2.70727L40.7885 2.64453L24.8294 94H36.7514L42.9937 58.1803ZM44.7103 48.3298L50.9443 12.5581L72.6436 12.6208C76.176 12.7463 79.1828 13.5202 81.6639 14.9424C84.145 16.3646 85.9533 18.3724 87.0888 20.9658C88.2662 23.5174 88.6237 26.571 88.1611 30.1265C87.6565 34.2676 86.3108 37.6767 84.124 40.3538C81.9793 43.0308 79.2459 45.0387 75.9237 46.3772C72.6436 47.7157 69.027 48.385 65.074 48.385L44.7103 48.3298Z" fill="white"/>
<path fill-rule="evenodd" clip-rule="evenodd" d="M294.75 2.70727L265.985 2.64453L250.026 94H261.948L268.4 56.981H289.532L302.445 94H315.061L315.124 93.1843L300.557 54.7033C303.699 53.5144 306.621 52.0567 309.321 50.3301C312.853 48.0295 315.734 45.1851 317.963 41.7969C320.234 38.3669 321.579 34.2885 322 29.5618C322.504 23.622 321.621 18.707 319.35 14.8169C317.122 10.8849 313.863 7.91503 309.573 5.90722C305.284 3.89941 300.343 2.83276 294.75 2.70727ZM270.115 47.1392L287.432 47.1929C291.133 47.1929 294.602 46.5236 297.84 45.1851C301.121 43.8465 303.854 41.8805 306.041 39.2871C308.27 36.6519 309.636 33.4101 310.141 29.5618C310.603 25.8808 310.246 22.8063 309.069 20.3384C307.891 17.8704 306.041 15.9881 303.518 14.6914C301.036 13.3947 298.03 12.7045 294.497 12.6208L276.141 12.5581L270.115 47.1392Z" fill="white"/>
<path d="M354.991 94L369.162 12.5581H397.759L399.525 2.64453H330.643L328.876 12.5581H357.486L343.259 94H354.991Z" fill="white"/>
<path d="M274.749 213.149L272.983 223H218.861L234.82 131.645H246.742L232.503 213.149H274.749Z" fill="white"/>
<path d="M324.618 218L340.262 126.143H338.243L304.307 138.44L302.288 149.421L326.7 140.95L313.201 218H324.618Z" fill="white"/>
<path d="M26.8504 141.558L21.4029 172.742H58.7342L56.968 182.656H19.671L12.6232 223H0.701172L16.6603 131.645H71.9178L70.1516 141.558H26.8504Z" fill="white"/>
<path fill-rule="evenodd" clip-rule="evenodd" d="M491.056 138.239L498.057 97.3701C499.071 91.2145 499.832 84.0498 500.339 75.876C500.846 67.7021 500.644 59.4779 499.73 51.2031C498.919 42.9284 497.042 35.2591 494.1 28.1953C491.259 21.1315 486.897 15.3796 481.013 10.9394C475.23 6.49934 467.621 4.27929 458.186 4.27929C446.52 4.27929 436.628 7.40755 428.512 13.6641C420.396 19.9206 413.599 27.943 408.121 37.7314C402.744 47.4189 398.432 57.611 395.186 68.3076C392.041 79.0042 389.657 88.6917 388.033 97.3701L381.033 138.239C379.917 144.395 379.106 151.509 378.598 159.582C378.091 167.554 378.294 175.728 379.207 184.104C380.12 192.479 382.048 200.199 384.99 207.263C387.932 214.326 392.244 220.078 397.925 224.519C403.707 228.858 411.316 231.027 420.751 231.027C432.317 231.027 442.157 227.95 450.273 221.794C458.491 215.537 465.339 207.565 470.817 197.878C476.295 188.09 480.658 177.897 483.904 167.302C487.151 156.706 489.535 147.019 491.056 138.239ZM489.687 97.5215L482.687 137.634C481.368 145.404 479.237 154.183 476.295 163.972C473.353 173.659 469.447 183.044 464.578 192.126C459.81 201.208 453.824 208.726 446.621 214.68C446.225 215.006 445.825 215.323 445.42 215.631L434.955 18.6053C441.529 14.2145 449.171 12.0629 457.882 12.1504C466.1 12.1504 472.592 14.2191 477.361 18.3564C482.129 22.4938 485.68 27.8926 488.013 34.5527C490.346 41.2129 491.716 48.4281 492.122 56.1982C492.629 63.8675 492.578 71.335 491.97 78.6006C491.462 85.8662 490.701 92.1732 489.687 97.5215ZM420.903 223.308C427.016 223.369 432.585 222.328 437.608 220.183L427.244 25.0566C422.125 30.1191 417.729 36.11 414.055 43.0293C409.287 52.0104 405.432 61.3952 402.49 71.1836C399.548 80.972 397.367 89.7008 395.947 97.3701L388.946 137.634C388.033 142.982 387.272 149.289 386.664 156.555C386.055 163.82 386.055 171.338 386.664 179.108C387.272 186.879 388.744 194.144 391.077 200.905C393.41 207.565 396.961 212.964 401.729 217.102C406.497 221.239 412.889 223.308 420.903 223.308Z" fill="white"/>
<path fill-rule="evenodd" clip-rule="evenodd" d="M205.502 97.3701L198.502 138.239C196.98 147.019 194.596 156.706 191.349 167.302C188.103 177.897 183.741 188.09 178.262 197.878C172.784 207.565 165.936 215.537 157.719 221.794C149.602 227.95 139.762 231.027 128.196 231.027C118.761 231.027 111.153 228.858 105.37 224.519C99.6888 220.078 95.3771 214.326 92.435 207.263C89.493 200.199 87.5654 192.479 86.6523 184.104C85.7393 175.728 85.5364 167.554 86.0436 159.582C86.5509 151.509 87.3625 144.395 88.4785 138.239L95.4786 97.3701C97.1018 88.6917 99.4859 79.0042 102.631 68.3076C105.877 57.611 110.189 47.4189 115.566 37.7314C121.044 27.943 127.841 19.9206 135.957 13.6641C144.073 7.40755 153.965 4.27929 165.632 4.27929C175.067 4.27929 182.675 6.49934 188.458 10.9394C194.342 15.3796 198.705 21.1315 201.545 28.1953C204.487 35.2591 206.364 42.9284 207.176 51.2031C208.089 59.4779 208.292 67.7021 207.784 75.876C207.277 84.0498 206.516 91.2145 205.502 97.3701ZM190.132 137.634L197.132 97.5215C198.147 92.1732 198.907 85.8662 199.415 78.6006C200.023 71.335 200.074 63.8675 199.567 56.1982C199.161 48.4281 197.792 41.2129 195.458 34.5527C193.125 27.8926 189.574 22.4938 184.806 18.3564C180.038 14.2191 173.545 12.1504 165.327 12.1504C156.617 12.0629 148.974 14.2145 142.4 18.6053L152.865 215.631C153.27 215.323 153.67 215.006 154.066 214.68C161.269 208.726 167.255 201.208 172.023 192.126C176.893 183.044 180.799 173.659 183.741 163.972C186.683 154.183 188.813 145.404 190.132 137.634ZM134.689 25.0566L145.053 220.183C140.03 222.328 134.462 223.369 128.349 223.308C120.334 223.308 113.943 221.239 109.174 217.102C104.406 212.964 100.855 207.565 98.5221 200.905C96.1887 194.144 94.7177 186.879 94.109 179.108C93.5003 171.338 93.5003 163.82 94.109 156.555C94.7177 149.289 95.4786 142.982 96.3916 137.634L103.392 97.3701C104.812 89.7008 106.993 80.972 109.935 71.1836C112.877 61.3952 116.732 52.0104 121.501 43.0293C125.174 36.11 129.57 30.1191 134.689 25.0566Z" fill="white"/>
</svg>
